<svg viewBox="0 0 583 190" xmlns="http://www.w3.org/2000/svg"><g transform="translate(20.0,20.0) scale(0.29297)">
  <path d="M 98 92 L 190 92 L 276 414 L 248 414 Z" fill="#FFFFFF"/>
  <path d="M 98 92 L 190 92 L 161 227 Z" fill="#FFFFFF" opacity="0"/>
  <g>
    <path d="M 404 112 Q 360 268 270 402" stroke="#FFFFFF" stroke-width="9" fill="none" stroke-linecap="round" opacity="0.85"/>
    <circle cx="404.0" cy="112.0" r="33.0" fill="#FFFFFF"/>
    <circle cx="384.6" cy="173.5" r="28.9" fill="#FFFFFF"/>
    <circle cx="361.4" cy="233.3" r="24.8" fill="#FFFFFF"/>
    <circle cx="334.6" cy="291.3" r="20.7" fill="#FFFFFF"/>
    <circle cx="304.2" cy="347.5" r="16.6" fill="#FFFFFF"/>
    <circle cx="270.0" cy="402.0" r="12.5" fill="#FFFFFF"/>
  </g>
</g><g transform="translate(204.0,114.4)"><path d="M12.544 0.0 1.1520000000000001 -44.800000000000004H9.856L19.328 -5.44H20.224L29.696 -44.800000000000004H38.4L27.008 0.0Z M50.176 0.0V-44.800000000000004H58.623999999999995V0.0Z M90.88000000000001 0.896Q82.432 0.896 77.44 -3.744Q72.44800000000001 -8.384 72.44800000000001 -17.024V-27.776Q72.44800000000001 -36.416000000000004 77.44 -41.056Q82.432 -45.696 90.88000000000001 -45.696Q99.328 -45.696 104.32000000000001 -41.056Q109.31200000000001 -36.416000000000004 109.31200000000001 -27.776V-17.024Q109.31200000000001 -8.384 104.32000000000001 -3.744Q99.328 0.896 90.88000000000001 0.896ZM90.88000000000001 -6.656000000000001Q95.61600000000001 -6.656000000000001 98.24000000000001 -9.408000000000001Q100.864 -12.16 100.864 -16.768V-28.032Q100.864 -32.64 98.24000000000001 -35.391999999999996Q95.61600000000001 -38.144 90.88000000000001 -38.144Q86.208 -38.144 83.55199999999999 -35.391999999999996Q80.896 -32.64 80.896 -28.032V-16.768Q80.896 -12.16 83.55199999999999 -9.408000000000001Q86.208 -6.656000000000001 90.88000000000001 -6.656000000000001Z M123.13600000000001 0.0V-44.800000000000004H139.20000000000002L148.096 -5.76H149.24800000000002V-44.800000000000004H157.568V0.0H141.50400000000002L132.608 -39.04H131.45600000000002V0.0Z" fill="#FFFFFF"/><g transform="translate(183.6,0)"><path d="M4.672 0.0V-44.800000000000004H11.584V-6.272H33.152V0.0Z M42.56 0.0 55.36 -44.800000000000004H67.52000000000001L80.256 0.0H73.152L70.208 -10.56H52.672L49.728 0.0ZM54.400000000000006 -16.96H68.48L61.952 -40.512H60.928Z M91.072 0.0V-6.144H97.08800000000001V-38.656H91.072V-44.800000000000004H113.792Q117.82400000000001 -44.800000000000004 120.83200000000001 -43.42400000000001Q123.84 -42.048 125.536 -39.519999999999996Q127.232 -36.992 127.232 -33.536V-32.896Q127.232 -29.824 126.08000000000001 -27.840000000000003Q124.92800000000001 -25.856 123.29600000000002 -24.768Q121.66400000000002 -23.68 120.19200000000001 -23.232V-22.208000000000002Q121.66400000000002 -21.824 123.36000000000001 -20.704Q125.05600000000001 -19.584 126.24000000000001 -17.6Q127.424 -15.616 127.424 -12.416V-11.776Q127.424 -8.064 125.69600000000001 -5.4399999999999995Q123.96800000000002 -2.816 120.92800000000001 -1.408Q117.888 0.0 113.92000000000002 0.0ZM104.06400000000001 -6.272H113.08800000000001Q116.54400000000001 -6.272 118.528 -7.936Q120.512 -9.6 120.512 -12.544V-13.120000000000001Q120.512 -16.064 118.56 -17.728Q116.608 -19.392 113.08800000000001 -19.392H104.06400000000001ZM104.06400000000001 -25.728H113.08800000000001Q116.352 -25.728 118.33600000000001 -27.36Q120.32000000000001 -28.992 120.32000000000001 -31.808V-32.448Q120.32000000000001 -35.264 118.36800000000001 -36.896Q116.41600000000001 -38.528 113.08800000000001 -38.528H104.06400000000001Z M156.8 0.896Q151.74400000000003 0.896 147.84000000000003 -0.8960000000000001Q143.936 -2.688 141.728 -6.176Q139.52 -9.664 139.52 -14.656V-16.256H146.36800000000002V-14.656Q146.36800000000002 -9.92 149.216 -7.552Q152.06400000000002 -5.184 156.8 -5.184Q161.60000000000002 -5.184 164.03200000000004 -7.200000000000001Q166.46400000000003 -9.216000000000001 166.46400000000003 -12.416Q166.46400000000003 -14.528 165.312 -15.872Q164.16000000000003 -17.216 162.048 -18.016Q159.936 -18.816 156.99200000000002 -19.52L154.62400000000002 -20.096Q150.336 -21.12 147.168 -22.624000000000002Q144.00000000000003 -24.128 142.27200000000002 -26.624000000000002Q140.544 -29.12 140.544 -33.024Q140.544 -36.992 142.496 -39.808Q144.448 -42.624 147.904 -44.16Q151.36 -45.696 156.032 -45.696Q160.704 -45.696 164.38400000000001 -44.096000000000004Q168.06400000000002 -42.496 170.17600000000002 -39.36Q172.288 -36.224000000000004 172.288 -31.488V-29.184H165.44000000000003V-31.488Q165.44000000000003 -34.368 164.25600000000003 -36.16Q163.072 -37.952 160.96 -38.784Q158.848 -39.616 156.032 -39.616Q151.936 -39.616 149.66400000000002 -37.92Q147.39200000000002 -36.224000000000004 147.39200000000002 -33.216Q147.39200000000002 -31.168 148.38400000000001 -29.856Q149.376 -28.544 151.296 -27.712Q153.216 -26.88 156.096 -26.240000000000002L158.46400000000003 -25.664Q162.81600000000003 -24.704 166.144 -23.200000000000003Q169.472 -21.696 171.392 -19.136000000000003Q173.312 -16.576 173.312 -12.544Q173.312 -8.512 171.29600000000002 -5.5040000000000004Q169.28000000000003 -2.496 165.56800000000004 -0.8Q161.85600000000002 0.896 156.8 0.896Z" fill="#FFFFFF"/></g></g></svg>